Coordinates
version=1
nRows=11
nColumns=42
inDegrees=yes

Units are S.I. units (second, meters, Newtons, ...)
If the header above contains a line with 'inDegrees', this indicates whether rotational values are in degrees (yes) or radians (no).

endheader
time	pelvis_tilt	pelvis_list	pelvis_rotation	pelvis_tx	pelvis_ty	pelvis_tz	hip_flexion_r	hip_adduction_r	hip_rotation_r	knee_angle_r	knee_adduction_r	knee_angle_r_beta	ankle_angle_r	subtalar_angle_r	mtp_angle_r	hip_flexion_l	hip_adduction_l	hip_rotation_l	knee_angle_l	knee_adduction_l	knee_angle_l_beta	ankle_angle_l	subtalar_angle_l	mtp_angle_l	lumbar_extension	lumbar_bending	lumbar_rotation	arm_flex_r	arm_add_r	arm_rot_r	elbow_flex_r	pro_sup_r	wrist_flex_r	wrist_dev_r	arm_flex_l	arm_add_l	arm_rot_l	elbow_flex_l	pro_sup_l	wrist_flex_l	wrist_dev_l
      2.44000000	     24.62843743	      4.81719502	     12.02779936	      1.56442116	      0.92445687	     -0.21580724	    -16.02676757	      0.50756484	    -39.71374843	     27.19814568	     -6.57843268	      0.47469719	     32.60947467	     32.30760998	     -7.50231064	    -15.07536972	      0.05193937	     -9.72494813	     59.90859848	    -15.72200653	      1.04560229	     17.70853411	     16.87588863	     -7.50231064	    -49.71264701	      5.55856947	     -6.58740512	      7.61145374	    -14.20802464	     -2.98521035	     46.77474944	     90.00000001	      0.00000000	      0.00000000	     12.44841623	    -13.77809937	      1.95572095	     49.58176423	     90.00000001	      0.00000000	      0.00000000
      2.45000000	     24.78682700	      4.97754837	     11.79612132	      1.57678854	      0.92540842	     -0.21504997	    -17.54185130	      0.70845212	    -39.69904313	     26.21607879	     -6.35805644	      0.45755689	     32.94774708	     32.80635322	     -7.50222312	    -13.59015653	      0.54680386	    -10.25467498	     59.37609341	    -15.79653965	      1.03630833	     18.84209538	     16.17481872	     -7.50222312	    -49.97979978	      5.22054890	     -6.35258900	      8.04505315	    -14.52791784	     -2.58609816	     47.62935541	     90.00000001	      0.00000000	      0.00000000	     11.77184637	    -13.64328147	      1.98388496	     48.93979417	     90.00000001	      0.00000000	      0.00000000
      2.46000000	     24.97566062	      5.05752049	     11.50279633	      1.58919555	      0.92610332	     -0.21422716	    -19.08317647	      0.98047342	    -39.68443468	     25.17889861	     -6.15645276	      0.43945468	     33.25466660	     33.50975088	     -7.50210645	    -12.18989128	      0.94682047	    -10.94796533	     58.53033488	    -15.87326499	      1.02154706	     19.87144917	     15.72686552	     -7.50210645	    -50.25448523	      4.92520327	     -6.02986251	      8.41861495	    -14.95719996	     -1.97506135	     48.73712709	     90.00000001	      0.00000000	      0.00000000	     11.07905201	    -13.49020126	      2.00657895	     48.22661696	     90.00000001	      0.00000000	      0.00000000
      2.47000000	     25.06005594	      5.10215119	     11.20895180	      1.60158778	      0.92644718	     -0.21338773	    -20.48802671	      1.27881974	    -39.66173050	     24.13801285	     -5.98098425	      0.42128780	     33.57729334	     33.52204372	     -7.50207527	    -10.73626988	      1.35802365	    -11.47219442	     57.42744337	    -15.80299562	      1.00229797	     20.68931398	     15.14634313	     -7.50207527	    -50.41712395	      4.63284044	     -5.73681891	      9.02560642	    -15.16837242	     -1.88490702	     49.24877055	     90.00000001	      0.00000000	      0.00000000	     10.23626891	    -13.39090594	      2.03631588	     47.78900389	     90.00000001	      0.00000000	      0.00000000
      2.48000000	     25.37970806	      5.05015112	     10.85963675	      1.61409432	      0.92668713	     -0.21247833	    -22.22564154	      1.70895626	    -39.63751912	     22.91726768	     -5.74186117	      0.39998178	     33.94624735	     34.16364817	     -7.50203797	     -9.61253709	      1.56391160	    -12.24742057	     56.02580749	    -15.76917280	      0.97783481	     21.64511757	     14.66375253	     -7.50203797	    -50.77836022	      4.42148249	     -5.27859092	      9.53342118	    -15.50736857	     -1.65724033	     49.99832078	     90.00000001	      0.00000000	      0.00000000	      9.48775572	    -13.25518261	      2.04392023	     47.26122190	     90.00000001	      0.00000000	      0.00000000
      2.49000000	     25.58894176	      4.90437312	     10.46790474	      1.62662678	      0.92653110	     -0.21163228	    -23.81570941	      2.14051240	    -39.61784603	     21.71738689	     -5.51520480	      0.37903991	     34.02305351	     35.40980724	     -7.50196679	     -8.41550954	      1.67983555	    -13.25397232	     54.33403041	    -15.79506090	      0.94830773	     22.42320734	     14.99599295	     -7.50196679	    -51.01276321	      4.26770463	     -4.68626921	      9.81885392	    -16.12232614	     -1.00488087	     51.25244180	     90.00000001	      0.00000000	      0.00000000	      8.72658542	    -12.98799135	      2.00195989	     46.65521400	     90.00000001	      0.00000000	      0.00000000
      2.50000000	     25.73798434	      4.70038363	     10.11171398	      1.63918113	      0.92600930	     -0.21083286	    -25.34700217	      2.62294537	    -39.59338729	     20.50720998	     -5.24799586	      0.35791833	     34.15398811	     36.05019789	     -7.50185587	     -7.18375029	      1.71213497	    -14.35511438	     52.43082533	    -15.83702147	      0.91509053	     23.16764659	     15.73663870	     -7.50185587	    -51.17110652	      4.16781738	     -4.17169669	     10.24619159	    -16.73794269	     -0.12676469	     52.27775467	     90.00000001	      0.00000000	      0.00000000	      7.86582365	    -12.75274540	      1.83092775	     46.15105711	     90.00000001	      0.00000000	      0.00000000
      2.51000000	     25.78627648	      4.48283760	      9.80797683	      1.65167540	      0.92516263	     -0.21011939	    -26.78182246	      3.11824307	    -39.56533261	     19.29135589	     -4.95848032	      0.33669768	     34.51021507	     36.19706108	     -7.50182700	     -5.93334581	      1.83043621	    -14.80759622	     50.40538251	    -15.49631773	      0.87973989	     23.61466218	     15.43510461	     -7.50182700	    -51.22926322	      4.08393996	     -3.70205529	     10.89368240	    -17.01461886	     -0.03970931	     52.63675506	     90.00000001	      0.00000000	      0.00000000	      6.96855563	    -12.58490074	      1.80175191	     45.76710427	     90.00000001	      0.00000000	      0.00000000
      2.52000000	     25.73674646	      4.17136268	      9.53922748	      1.66415457	      0.92396417	     -0.20950783	    -28.10947809	      3.65214743	    -39.53812489	     18.10782219	     -4.59097188	      0.31604112	     34.71032192	     36.47551546	     -7.50180067	     -4.61962742	      1.84024530	    -15.21125842	     48.21511340	    -15.06280659	      0.84151248	     23.92411179	     15.39620823	     -7.50180067	    -51.18755544	      4.10336744	     -3.17784348	     11.53492642	    -17.34702840	      0.07890193	     53.03506899	     90.00000001	      0.00000000	      0.00000000	      6.05548684	    -12.35232239	      1.74811923	     45.37313414	     90.00000001	      0.00000000	      0.00000000
      2.53000000	     25.43156039	      3.77550716	      9.28361141	      1.67651410	      0.92225189	     -0.20894478	    -29.03704849	      4.20203171	    -39.53733102	     17.09152610	     -4.35291493	      0.29830340	     34.81957014	     36.88007184	     -7.50177707	     -3.02550084	      1.81729570	    -15.54557556	     45.94509045	    -14.57365651	      0.80189310	     24.12564676	     15.65416618	     -7.50177707	    -50.90852258	      4.14836777	     -2.63747717	     12.17015187	    -17.68717157	      0.24924959	     53.41304672	     90.00000001	      0.00000000	      0.00000000	      5.20260510	    -12.10413495	      1.64297055	     44.96613738	     90.00000001	      0.00000000	      0.00000000
      2.54000000	     24.84570961	      3.17516144	      9.03172522	      1.68882221	      0.91993369	     -0.20844305	    -29.48502002	      4.84008144	    -39.55189622	     16.35920750	     -4.22281659	      0.28552203	     34.71394204	     37.49200092	     -7.50168176	     -1.02191884	      1.45833973	    -16.61361832	     43.62873697	    -14.32012836	      0.76146511	     24.56519871	     18.11006489	     -7.50168176	    -50.33404571	      4.35920926	     -2.01828486	     12.84371364	    -18.33511051	      1.33631948	     53.76905150	     90.00000001	      0.00000000	      0.00000000	      4.50762235	    -11.50362066	      0.69428934	     43.95005439	     90.00000001	      0.00000000	      0.00000000
